<svg version="1.1" viewBox="0.0 0.0 96.0 96.0" fill="none" stroke="none" stroke-linecap="square" stroke-miterlimit="10" xmlns:xlink="http://www.w3.org/1999/xlink" xmlns="http://www.w3.org/2000/svg"><clipPath id="p.0"><path d="m0 0l96.0 0l0 96.0l-96.0 0l0 -96.0z" clip-rule="nonzero"/></clipPath><g clip-path="url(#p.0)"><path fill="#000000" fill-opacity="0.0" d="m0 0l96.0 0l0 96.0l-96.0 0z" fill-rule="evenodd"/><path fill="#ffff00" d="m-2.6246718E-7 48.0l0 0c0 -26.509668 21.490332 -48.0 48.0 -48.0l0 0c12.730392 0 24.939377 5.0571284 33.941124 14.058874c9.001747 9.001747 14.058876 21.210733 14.058876 33.941124l0 0c0 26.509666 -21.490334 48.0 -48.0 48.0l0 0c-26.509668 0 -48.0 -21.490334 -48.0 -48.0z" fill-rule="evenodd"/><path stroke="#000000" stroke-width="0.2125984251968504" stroke-linejoin="round" stroke-linecap="butt" d="m-2.6246718E-7 48.0l0 0c0 -26.509668 21.490332 -48.0 48.0 -48.0l0 0c12.730392 0 24.939377 5.0571284 33.941124 14.058874c9.001747 9.001747 14.058876 21.210733 14.058876 33.941124l0 0c0 26.509666 -21.490334 48.0 -48.0 48.0l0 0c-26.509668 0 -48.0 -21.490334 -48.0 -48.0z" fill-rule="evenodd"/><path fill="#ffff00" d="m40.175613 19.682404l15.622044 0l0 56.62992l-15.622044 0z" fill-rule="evenodd"/><path stroke="#000000" stroke-width="5.10761154855643" stroke-linejoin="round" stroke-linecap="butt" d="m40.175613 19.682404l15.622044 0l0 56.62992l-15.622044 0z" fill-rule="evenodd"/></g></svg>